<svg width="23" height="23" viewBox="0 0 23 23" fill="none" xmlns="http://www.w3.org/2000/svg">
<path d="M20.125 0H2.875C1.2894 0 0 1.2894 0 2.875V20.125C0 21.7106 1.2894 23 2.875 23H20.125C21.7106 23 23 21.7106 23 20.125V2.875C23 1.2894 21.7106 0 20.125 0ZM2.875 1.91667H20.125C20.6535 1.91667 21.0833 2.34647 21.0833 2.875V9.66569L17.9276 6.50993C17.5532 6.13581 16.9468 6.13581 16.5724 6.50993L9.82292 13.2594L7.3859 10.8224C7.01156 10.4483 6.40511 10.4483 6.03076 10.8224L1.91667 14.9365V2.875C1.91667 2.34647 2.34647 1.91667 2.875 1.91667ZM20.125 21.0833H2.875C2.34647 21.0833 1.91667 20.6535 1.91667 20.125V17.6468L6.70833 12.8551L12.2599 18.4063C12.4473 18.5941 12.6921 18.6875 12.9375 18.6875C13.1829 18.6875 13.4277 18.5941 13.6151 18.4067C13.9892 18.0324 13.9892 17.4259 13.6151 17.0516L11.1781 14.6146L17.25 8.54311L21.0833 12.3764V20.125C21.0833 20.6535 20.6535 21.0833 20.125 21.0833Z"/>
<path d="M7.66673 5.75C7.66673 6.80847 6.80854 7.66667 5.75007 7.66667C4.69159 7.66667 3.8334 6.80847 3.8334 5.75C3.8334 4.69153 4.69159 3.83333 5.75007 3.83333C6.80854 3.83333 7.66673 4.69153 7.66673 5.75Z"/>
</svg>
