<?xml version="1.0" encoding="utf-8"?>
<!-- Generator: Adobe Illustrator 25.4.1, SVG Export Plug-In . SVG Version: 6.00 Build 0)  -->
<svg version="1.1" id="Layer_1" xmlns="http://www.w3.org/2000/svg" xmlns:xlink="http://www.w3.org/1999/xlink" x="0px" y="0px"
	 viewBox="0 0 556.41 196.56" style="enable-background:new 0 0 556.41 196.56;" xml:space="preserve">
<style type="text/css">
	.st0{fill:#005288;}
	.st1{fill:#49A942;}
	.st2{fill:none;}
	.st3{fill:#717073;}
</style>
<g>
	<g>
		<path class="st0" d="M109.15,131.05l13.8-36.84l-10.74-28.69L94.8,112.61h-8.43c-9.58,0-14.88-2.34-14.88-14.27
			c0-11.93,5.3-14.39,14.88-14.39h9l6.81-18.42H84.64c-20.77,0-33.55,10.54-33.55,32.81c0,22.15,12.78,32.7,33.55,32.7h3.35H109.15z
			"/>
		<polygon class="st1" points="164.8,131.05 164.8,109.74 187.73,109.74 187.73,92.67 164.8,92.67 164.8,83.96 191.99,83.96 
			198.8,65.54 145.71,65.54 145.71,97.98 133.7,65.51 112.21,65.51 136.77,131.05 		"/>
	</g>
	<rect class="st2" width="556.41" height="196.56"/>
	<g>
		<path class="st3" d="M215.44,130.92v-14.92h10.14v3.27h-6.48v2.49h5.53v3.27h-5.53v2.62h6.48v3.27H215.44z"/>
		<path class="st3" d="M238.01,131.04c-1.74,0-3.06-0.59-4.15-1.68c-1.57-1.57-1.51-3.67-1.51-5.91c0-2.24-0.06-4.34,1.51-5.91
			c1.09-1.09,2.41-1.68,4.15-1.68c2.83,0,5.11,1.57,5.66,4.86h-3.73c-0.23-0.84-0.69-1.59-1.91-1.59c-0.67,0-1.17,0.27-1.45,0.63
			c-0.34,0.44-0.57,0.96-0.57,3.69c0,2.73,0.23,3.25,0.57,3.69c0.27,0.36,0.78,0.63,1.45,0.63c1.21,0,1.68-0.75,1.91-1.59h3.73
			C243.12,129.47,240.84,131.04,238.01,131.04z"/>
		<path class="st3" d="M253.96,130.92l-0.69-2.22h-4.59l-0.73,2.22h-3.84l5.43-14.92h2.83l5.43,14.92H253.96z M251.05,121.65
			l-1.34,3.98h2.6L251.05,121.65z"/>
		<path class="st3" d="M267.05,130.92l-2.64-5.55h-1.24v5.55h-3.67v-14.92h5.91c3.31,0,5.09,2.35,5.09,4.8
			c0,2.03-1.26,3.31-2.43,3.9l3.23,6.23H267.05z M265.24,119.28h-2.07v3.02h2.07c1.01,0,1.59-0.73,1.59-1.51
			C266.84,120.02,266.25,119.28,265.24,119.28z"/>
		<path class="st3" d="M273.18,130.92v-14.92h3.67v14.92H273.18z"/>
		<path class="st3" d="M286.28,130.92h-6.5v-14.92h6.18c3.1,0,4.76,1.74,4.76,4.32c0,1.7-1.17,2.64-1.64,2.95
			c0.61,0.38,1.85,1.15,1.85,3.25C290.93,129.36,288.94,130.92,286.28,130.92z M285.73,119.28h-2.28v2.43h2.28
			c1.01,0,1.32-0.63,1.32-1.22C287.05,119.91,286.74,119.28,285.73,119.28z M285.92,125h-2.47v2.62h2.47c1.01,0,1.34-0.69,1.34-1.32
			C287.26,125.68,286.93,125,285.92,125z"/>
		<path class="st3" d="M293.38,130.92v-14.92h10.14v3.27h-6.48v2.49h5.53v3.27h-5.53v2.62h6.48v3.27H293.38z"/>
	</g>
	<g>
		<path class="st3" d="M223.52,104.28c-1.03,1.03-2.47,1.47-4.02,1.47h-5.53V90.82h5.53c1.55,0,3,0.44,4.02,1.47
			c1.74,1.74,1.55,3.65,1.55,5.99C225.07,100.63,225.26,102.54,223.52,104.28z M221.01,94.93c-0.34-0.5-0.84-0.84-1.76-0.84h-1.61
			v8.38h1.61c0.92,0,1.43-0.34,1.76-0.84c0.29-0.42,0.4-0.82,0.4-3.35C221.4,95.77,221.3,95.35,221.01,94.93z"/>
		<path class="st3" d="M235.68,105.75l-0.69-2.22h-4.59l-0.73,2.22h-3.84l5.43-14.92h2.83l5.43,14.92H235.68z M232.77,96.48
			l-1.34,3.98h2.6L232.77,96.48z"/>
		<path class="st3" d="M254.02,105.75l-0.69-2.22h-4.59l-0.73,2.22h-3.84l5.43-14.92h2.83l5.43,14.92H254.02z M251.11,96.48
			l-1.34,3.98h2.6L251.11,96.48z"/>
		<path class="st3" d="M269.81,105.75V98.6l-2.12,3.69h-2.35l-2.12-3.69v7.15h-3.67V90.82h3.61l3.35,6.58l3.35-6.58h3.61v14.92
			H269.81z"/>
		<path class="st3" d="M276.45,105.75V90.82h10.14v3.27h-6.48v2.49h5.53v3.27h-5.53v2.62h6.48v3.27H276.45z M282.25,89.35h-2.08
			l1.03-3.77h3.52L282.25,89.35z"/>
		<path class="st3" d="M296.75,105.75l-2.64-5.55h-1.24v5.55h-3.67V90.82h5.91c3.31,0,5.09,2.35,5.09,4.8c0,2.03-1.26,3.31-2.43,3.9
			l3.23,6.22H296.75z M294.95,94.11h-2.07v3.02h2.07c1.01,0,1.59-0.73,1.59-1.51C296.54,94.85,295.96,94.11,294.95,94.11z"/>
		<path class="st3" d="M302.89,105.75V90.82h3.67v14.92H302.89z"/>
		<path class="st3" d="M314.69,105.87c-1.74,0-3.06-0.59-4.15-1.68c-1.57-1.57-1.51-3.67-1.51-5.91c0-2.24-0.06-4.34,1.51-5.91
			c1.09-1.09,2.41-1.68,4.15-1.68c2.83,0,5.11,1.57,5.66,4.86h-3.73c-0.23-0.84-0.69-1.59-1.91-1.59c-0.67,0-1.17,0.27-1.45,0.63
			c-0.34,0.44-0.57,0.96-0.57,3.69c0,2.73,0.23,3.25,0.57,3.69c0.27,0.36,0.78,0.63,1.45,0.63c1.21,0,1.68-0.75,1.91-1.59h3.73
			C319.81,104.3,317.52,105.87,314.69,105.87z"/>
		<path class="st3" d="M330.65,105.75l-0.69-2.22h-4.59l-0.73,2.22h-3.84l5.43-14.92h2.83l5.43,14.92H330.65z M327.74,96.48
			l-1.34,3.98h2.6L327.74,96.48z"/>
		<path class="st3" d="M340.64,105.75V90.82h3.67v11.65h6.27v3.27H340.64z"/>
		<path class="st3" d="M361.68,105.75l-0.69-2.22h-4.59l-0.73,2.22h-3.84l5.43-14.92h2.83l5.43,14.92H361.68z M358.77,96.48
			l-1.34,3.98h2.6L358.77,96.48z"/>
		<path class="st3" d="M372.27,94.09v11.65h-3.67V94.09h-3.67v-3.27h11v3.27H372.27z"/>
		<path class="st3" d="M377.94,105.75V90.82h3.67v14.92H377.94z"/>
		<path class="st3" d="M392.99,105.75l-4.78-7.5v7.5h-3.67V90.82h3.21l4.78,7.5v-7.5h3.67v14.92H392.99z"/>
		<path class="st3" d="M407.75,105.75l-0.69-2.22h-4.59l-0.73,2.22h-3.84l5.43-14.92h2.83l5.43,14.92H407.75z M404.83,96.48
			l-1.34,3.98h2.6L404.83,96.48z"/>
	</g>
	<g>
		<path class="st3" d="M219.75,80.56h-5.81V65.64h5.62c2.6,0,4.4,1.49,4.4,3.98c0,1.57-0.94,2.81-2.2,3.27
			c1.43,0.52,2.43,1.76,2.43,3.54C224.19,79.14,222.39,80.56,219.75,80.56z M219.43,67.06h-3.9v5.18h3.9c1.66,0,2.93-0.82,2.93-2.6
			C222.37,67.86,221.09,67.06,219.43,67.06z M219.6,73.67h-4.07v5.47h4.07c1.84,0,3-1.07,3-2.75
			C222.6,74.72,221.44,73.67,219.6,73.67z"/>
		<path class="st3" d="M236.69,80.56l-1.19-3.37h-6.52l-1.19,3.37h-1.7l5.49-14.92h1.34l5.47,14.92H236.69z M232.27,67.92
			l-2.81,7.88h5.57L232.27,67.92z"/>
		<path class="st3" d="M250.59,80.56l-7.92-11.97v11.97h-1.59V65.64h1.51l7.92,11.93V65.64h1.59v14.92H250.59z"/>
		<path class="st3" d="M260.83,80.69c-1.47,0-2.81-0.55-3.81-1.55c-1.4-1.4-1.4-2.87-1.4-6.04c0-3.16,0-4.63,1.4-6.04
			c1.01-1.01,2.35-1.55,3.81-1.55c2.68,0,4.67,1.64,5.18,4.44h-1.64c-0.4-1.82-1.68-3.02-3.54-3.02c-0.98,0-1.93,0.38-2.58,1.05
			c-0.94,0.96-1.05,1.99-1.05,5.11c0,3.12,0.11,4.15,1.05,5.11c0.65,0.67,1.59,1.05,2.58,1.05c1.87,0,3.19-1.19,3.58-3.02h1.59
			C265.53,79.05,263.5,80.69,260.83,80.69z"/>
		<path class="st3" d="M277.98,79.14c-1.01,1.01-2.33,1.55-3.81,1.55c-1.49,0-2.81-0.55-3.82-1.55c-1.4-1.4-1.4-2.87-1.4-6.04
			c0-3.16,0-4.63,1.4-6.04c1.01-1.01,2.33-1.55,3.82-1.55c1.49,0,2.81,0.54,3.81,1.55c1.4,1.4,1.4,2.87,1.4,6.04
			C279.38,76.27,279.38,77.73,277.98,79.14z M276.74,68.01c-0.65-0.67-1.59-1.07-2.58-1.07c-0.99,0-1.93,0.4-2.58,1.07
			c-0.94,0.96-1.05,1.97-1.05,5.09c0,3.12,0.11,4.13,1.05,5.09c0.65,0.67,1.59,1.07,2.58,1.07c0.98,0,1.93-0.4,2.58-1.07
			c0.94-0.96,1.05-1.97,1.05-5.09C277.79,69.98,277.68,68.97,276.74,68.01z"/>
		<path class="st3" d="M297.07,79.18c-0.9,0.9-2.22,1.38-3.77,1.38h-5.11V65.64h5.11c1.55,0,2.87,0.48,3.77,1.38
			c1.55,1.55,1.47,3.84,1.47,5.91C298.54,75.01,298.62,77.63,297.07,79.18z M295.96,68.15c-0.78-0.8-1.78-1.09-2.93-1.09h-3.25
			v12.07h3.25c1.15,0,2.16-0.29,2.93-1.09c1.03-1.07,0.98-3.29,0.98-5.11C296.94,71.11,296.98,69.22,295.96,68.15z"/>
		<path class="st3" d="M302,80.56V65.64h9.26v1.42h-7.67v5.26h6.54v1.42h-6.54v5.39h7.67v1.43H302z"/>
		<path class="st3" d="M328.52,79.18c-0.9,0.9-2.22,1.38-3.77,1.38h-5.11V65.64h5.11c1.55,0,2.87,0.48,3.77,1.38
			c1.55,1.55,1.47,3.84,1.47,5.91C329.98,75.01,330.07,77.63,328.52,79.18z M327.4,68.15c-0.77-0.8-1.78-1.09-2.93-1.09h-3.25v12.07
			h3.25c1.15,0,2.16-0.29,2.93-1.09c1.03-1.07,0.99-3.29,0.99-5.11C328.39,71.11,328.43,69.22,327.4,68.15z"/>
		<path class="st3" d="M333.45,80.56V65.64h9.26v1.42h-7.67v5.26h6.54v1.42h-6.54v5.39h7.67v1.43H333.45z"/>
		<path class="st3" d="M350.23,80.69c-2.24,0-3.71-0.57-5.12-1.97l1.09-1.09c1.24,1.24,2.39,1.63,4.07,1.63
			c2.18,0,3.52-1.03,3.52-2.77c0-0.78-0.23-1.45-0.71-1.87c-0.48-0.42-0.86-0.55-1.95-0.71l-1.74-0.27
			c-1.17-0.19-2.1-0.57-2.75-1.13c-0.75-0.67-1.13-1.59-1.13-2.79c0-2.54,1.82-4.21,4.78-4.21c1.91,0,3.17,0.48,4.44,1.64
			l-1.03,1.03c-0.92-0.84-1.91-1.28-3.48-1.28c-1.99,0-3.14,1.11-3.14,2.77c0,0.73,0.21,1.32,0.67,1.72
			c0.46,0.4,1.24,0.69,2.01,0.82l1.64,0.25c1.4,0.21,2.1,0.5,2.72,1.05c0.82,0.69,1.26,1.72,1.26,2.95
			C355.39,79.07,353.33,80.69,350.23,80.69z"/>
		<path class="st3" d="M358.53,80.56V65.64h9.26v1.42h-7.67v5.26h6.54v1.42h-6.54v5.39h7.67v1.43H358.53z"/>
		<path class="st3" d="M380.44,80.56l-7.92-11.97v11.97h-1.59V65.64h1.51l7.92,11.93V65.64h1.59v14.92H380.44z"/>
		<path class="st3" d="M390.8,80.56h-1.3l-4.9-14.92h1.68l3.88,12.07l3.88-12.07h1.68L390.8,80.56z"/>
		<path class="st3" d="M406.49,79.14c-1.01,1.01-2.33,1.55-3.81,1.55c-1.49,0-2.81-0.55-3.82-1.55c-1.4-1.4-1.4-2.87-1.4-6.04
			c0-3.16,0-4.63,1.4-6.04c1.01-1.01,2.33-1.55,3.82-1.55c1.49,0,2.81,0.54,3.81,1.55c1.4,1.4,1.4,2.87,1.4,6.04
			C407.89,76.27,407.89,77.73,406.49,79.14z M405.25,68.01c-0.65-0.67-1.59-1.07-2.58-1.07c-0.99,0-1.93,0.4-2.58,1.07
			c-0.94,0.96-1.05,1.97-1.05,5.09c0,3.12,0.11,4.13,1.05,5.09c0.65,0.67,1.59,1.07,2.58,1.07c0.98,0,1.93-0.4,2.58-1.07
			c0.94-0.96,1.05-1.97,1.05-5.09C406.3,69.98,406.2,68.97,405.25,68.01z"/>
		<path class="st3" d="M411.41,80.56V65.64H413v13.5h7.63v1.43H411.41z"/>
		<path class="st3" d="M426.51,80.56h-1.3l-4.91-14.92h1.68l3.88,12.07l3.88-12.07h1.68L426.51,80.56z"/>
		<path class="st3" d="M434.06,80.56V65.64h1.59v14.92H434.06z"/>
		<path class="st3" d="M450.75,80.56V69.22l-4.09,8.99h-1.36l-4.15-8.99v11.34h-1.59V65.64h1.59l4.86,10.58l4.74-10.58h1.59v14.92
			H450.75z"/>
		<path class="st3" d="M456.3,80.56V65.64h9.26v1.42h-7.67v5.26h6.54v1.42h-6.54v5.39h7.67v1.43H456.3z"/>
		<path class="st3" d="M478.22,80.56l-7.92-11.97v11.97h-1.59V65.64h1.51l7.92,11.93V65.64h1.59v14.92H478.22z"/>
		<path class="st3" d="M488.52,67.06v13.5h-1.59v-13.5h-4.32v-1.42h10.23v1.42H488.52z"/>
		<path class="st3" d="M503.92,79.14c-1.01,1.01-2.33,1.55-3.81,1.55c-1.49,0-2.81-0.55-3.82-1.55c-1.4-1.4-1.4-2.87-1.4-6.04
			c0-3.16,0-4.63,1.4-6.04c1.01-1.01,2.33-1.55,3.82-1.55c1.49,0,2.81,0.54,3.81,1.55c1.4,1.4,1.4,2.87,1.4,6.04
			C505.32,76.27,505.32,77.73,503.92,79.14z M502.68,68.01c-0.65-0.67-1.59-1.07-2.58-1.07c-0.99,0-1.93,0.4-2.58,1.07
			c-0.94,0.96-1.05,1.97-1.05,5.09c0,3.12,0.11,4.13,1.05,5.09c0.65,0.67,1.59,1.07,2.58,1.07c0.98,0,1.93-0.4,2.58-1.07
			c0.94-0.96,1.05-1.97,1.05-5.09C503.73,69.98,503.62,68.97,502.68,68.01z"/>
	</g>
</g>
</svg>
