<?xml version="1.0"?>
<svg xmlns="http://www.w3.org/2000/svg" xmlns:xlink="http://www.w3.org/1999/xlink" xmlns:svgjs="http://svgjs.com/svgjs" version="1.1" width="512" height="512" x="0" y="0" viewBox="0 0 128 128" style="enable-background:new 0 0 512 512" xml:space="preserve" class=""><g><path xmlns="http://www.w3.org/2000/svg" d="m116.5 70.977-52.5 15.488-52.5-15.488s-7.865 2.542-8.62 5.331c-.774 2.86-5.387 29.841 3.532 33.761 7.4 3.252 22.122 8.619 47.094 10.307 1.659.112 19.325.117 20.985.01 23.892-1.537 39.71-7.071 47.1-10.318 8.919-3.92 4.306-30.9 3.532-33.761-.758-2.788-8.623-5.33-8.623-5.33z" fill="#eeeeee" data-original="#ffc943" style="" class=""/><path xmlns="http://www.w3.org/2000/svg" d="m64.608 121.463c-5.064 0-10.31-.03-11.17-.089-18.658-1.262-34.615-4.757-47.429-10.39-10.448-4.593-4.175-34.642-4.095-34.937.854-3.153 7.877-5.569 9.276-6.021l.294-.095 52.516 15.491 52.515-15.491.294.095c1.4.453 8.423 2.869 9.276 6.021.08.3 6.353 30.345-4.095 34.938-7.314 3.215-23.2 8.841-47.436 10.4-.815.052-5.304.078-9.946.078zm-53.093-49.439c-3.038 1.022-7.261 3.034-7.67 4.545-1.284 4.742-4.7 29.213 2.969 32.584 12.6 5.539 28.333 8.979 46.759 10.226 1.627.109 19.168.119 20.853.01 23.926-1.539 39.566-7.073 46.76-10.235 7.668-3.371 4.253-27.842 2.969-32.584-.409-1.511-4.632-3.522-7.67-4.545l-52.485 15.482z" fill="#c3c6cd" data-original="#2f3a5a" style="" class=""/><path xmlns="http://www.w3.org/2000/svg" d="m120.482 71.5c-.277-8.316-6.653-8.316-6.653-8.316-4.435-35.759-29.66-44.629-29.66-44.629-2.495-3.881-14.414-5.267-14.414-5.267h-11.51s-11.92 1.386-14.414 5.267c0 0-25.225 8.87-29.66 44.629 0 0-6.376 0-6.653 8.316 0 0-1.663 23.285 8.87 24.116 0 0 14.224 6.3 47.612 5 34.544.684 47.612-5 47.612-5 10.534-.83 8.87-24.116 8.87-24.116z" fill="#eeeeee" data-original="#ffc943" style="" class=""/><path xmlns="http://www.w3.org/2000/svg" d="m64 100.613c-33.384 1.3-47.615-4.994-47.615-4.994-10.531-.836-8.87-24.119-8.87-24.119.221-6.4 4.035-7.872 5.781-8.2.443 6.839 2.128 15.757 7.922 16.274 0 0 12.78 6.3 42.781 4.994 31.046.677 42.781-4.994 42.781-4.994 5.794-.517 7.479-9.435 7.922-16.274 1.747.332 5.56 1.808 5.781 8.2 0 0 1.4 19.575-6.488 23.474a42.385 42.385 0 0 1 -6.807 2.07c-7.479 1.784-21.388 4.004-43.188 3.569z" fill="#f7f7f7" data-original="#f7b521" style="" class=""/><g xmlns="http://www.w3.org/2000/svg" fill="#2f3a5a"><path d="m55.063 101.792c-18.357 0-29.72-2.383-35.2-3.95-2.98-.852-5.508-1.587-6.266-1.957-8.43-4.109-7.136-23.626-7.077-24.455.239-7.189 4.791-8.789 6.758-9.144 4.44-33.174 26.975-43.361 29.908-44.552 2.983-3.942 13.7-5.294 14.943-5.438l.116-.007 11.625.007c1.239.144 11.96 1.5 14.943 5.438 2.934 1.19 25.468 11.378 29.908 44.552 1.965.356 6.511 1.959 6.759 9.163.075 1.082 1.313 20.632-7.263 24.522-.14.063-14.432 6.346-50.238 5.642q-4.706.187-8.916.179zm-40.893-37.607c-.215 0-5.413.147-5.653 7.35-.016.228-1.266 19.032 5.957 22.552.662.323 3.965 1.267 5.939 1.832 6.2 1.773 20.108 4.61 43.548 3.7 34.849.684 49.295-5.4 49.431-5.464 6.123-2.777 6.474-17.239 6.093-22.577v-.038c-.242-7.266-5.433-7.35-5.653-7.35h-.884l-.108-.877c-4.3-34.676-28.754-43.722-29-43.809l-.322-.114-.186-.288c-1.826-2.84-10.4-4.426-13.632-4.808h-11.4c-3.23.384-11.808 1.971-13.632 4.808l-.185.288-.323.114c-.247.087-24.7 9.133-29 43.809l-.108.877z" fill="#c3c6cd" data-original="#2f3a5a" style="" class=""/><path d="m84.169 64.413a1 1 0 0 1 -1-1v-44.857a1 1 0 1 1 2 0v44.857a1 1 0 0 1 -1 1z" fill="#c3c6cd" data-original="#2f3a5a" style="" class=""/><path d="m43.981 64.413a1 1 0 0 1 -1-1v-44.857a1 1 0 1 1 2 0v44.857a1 1 0 0 1 -1 1z" fill="#c3c6cd" data-original="#2f3a5a" style="" class=""/></g><path xmlns="http://www.w3.org/2000/svg" d="m70.963 31.332v-17.132a6.663 6.663 0 0 0 -6.663-6.664 6.663 6.663 0 0 0 -6.662 6.664v17.132" fill="#eeeeee" data-original="#ffc943" style="" class=""/><path xmlns="http://www.w3.org/2000/svg" d="m70.963 32.332a1 1 0 0 1 -1-1v-17.132a5.663 5.663 0 0 0 -11.325 0v17.132a1 1 0 0 1 -2 0v-17.132a7.663 7.663 0 0 1 15.325 0v17.132a1 1 0 0 1 -1 1z" fill="#c3c6cd" data-original="#2f3a5a" style="" class=""/></g></svg>
