<svg width="30" height="30" viewBox="0 0 30 30" fill="none" xmlns="http://www.w3.org/2000/svg">
<path d="M15.2953 30.0014C15.1959 30.0014 15.0966 30.0014 14.9966 30.0009C12.645 30.0067 10.4723 29.9469 8.35922 29.8183C6.42197 29.7004 4.65363 29.0309 3.24509 27.8824C1.88599 26.7742 0.95787 25.2757 0.486603 23.429C0.0764466 21.8214 0.0547028 20.2432 0.0338745 18.7168C0.0187683 17.6216 0.00320435 16.3239 0 15.0041C0.00320435 13.6789 0.0187683 12.3811 0.0338745 11.2859C0.0547028 9.75976 0.0764466 8.18162 0.486603 6.57372C0.95787 4.72711 1.88599 3.22862 3.24509 2.12037C4.65363 0.97184 6.42197 0.30236 8.35945 0.184486C10.4725 0.0560835 12.6457 -0.00388361 15.0023 0.00183844C17.3545 -0.00319696 19.5266 0.0560835 21.6396 0.184486C23.5769 0.30236 25.3452 0.97184 26.7538 2.12037C28.1131 3.22862 29.041 4.72711 29.5123 6.57372C29.9224 8.18139 29.9442 9.75976 29.965 11.2859C29.9801 12.3811 29.9959 13.6789 29.9989 14.9986V15.0041C29.9959 16.3239 29.9801 17.6216 29.965 18.7168C29.9442 20.243 29.9226 21.8211 29.5123 23.429C29.041 25.2757 28.1131 26.7742 26.7538 27.8824C25.3452 29.0309 23.5769 29.7004 21.6396 29.8183C19.6161 29.9414 17.5374 30.0014 15.2953 30.0014ZM14.9966 27.6572C17.3099 27.6627 19.4339 27.6043 21.4973 27.4789C22.9621 27.3898 24.2322 26.9145 25.2727 26.066C26.2344 25.2816 26.8968 24.1995 27.2413 22.8495C27.5828 21.5112 27.6025 20.0743 27.6215 18.6848C27.6363 17.5969 27.6519 16.3083 27.6551 15.0014C27.6519 13.6942 27.6363 12.4059 27.6215 11.318C27.6025 9.92845 27.5828 8.49153 27.2413 7.15302C26.8968 5.80308 26.2344 4.72093 25.2727 3.93655C24.2322 3.08831 22.9621 2.61292 21.4973 2.52389C19.4339 2.39823 17.3099 2.34032 15.0021 2.34536C12.6892 2.33987 10.565 2.39823 8.50159 2.52389C7.03674 2.61292 5.76668 3.08831 4.72618 3.93655C3.76442 4.72093 3.10204 5.80308 2.75757 7.15302C2.41608 8.49153 2.39639 9.92822 2.3774 11.318C2.36252 12.4068 2.34695 13.6961 2.34375 15.0041C2.34695 16.3065 2.36252 17.596 2.3774 18.6848C2.39639 20.0743 2.41608 21.5112 2.75757 22.8495C3.10204 24.1995 3.76442 25.2816 4.72618 26.066C5.76668 26.9142 7.03674 27.3896 8.50159 27.4787C10.565 27.6043 12.6897 27.6629 14.9966 27.6572ZM14.9407 22.3256C10.9023 22.3256 7.6165 19.04 7.6165 15.0014C7.6165 10.9628 10.9023 7.67716 14.9407 7.67716C18.9793 7.67716 22.2649 10.9628 22.2649 15.0014C22.2649 19.04 18.9793 22.3256 14.9407 22.3256ZM14.9407 10.0209C12.1946 10.0209 9.96025 12.2553 9.96025 15.0014C9.96025 17.7475 12.1946 19.9819 14.9407 19.9819C17.6871 19.9819 19.9212 17.7475 19.9212 15.0014C19.9212 12.2553 17.6871 10.0209 14.9407 10.0209ZM23.0853 5.33341C22.1146 5.33341 21.3274 6.12031 21.3274 7.09123C21.3274 8.06214 22.1146 8.84904 23.0853 8.84904C24.0562 8.84904 24.8431 8.06214 24.8431 7.09123C24.8431 6.12031 24.0562 5.33341 23.0853 5.33341Z" fill="#B8B8B8"/>
</svg>
