<?xml version="1.0" encoding="utf-8"?>
<svg width="23px" height="23px" viewBox="0 0 23 23" fill="none" xmlns="http://www.w3.org/2000/svg">
  <path fill-rule="evenodd" clip-rule="evenodd" d="M 0.36 0 L 0 0 L 0 0.402 L 0 17.298 L 0 17.701 L 0.36 17.701 L 6.11 17.701 L 6.11 22.125 L 6.11 23 L 6.701 22.431 L 11.634 17.701 L 22.64 17.701 L 23 17.701 L 23 17.298 L 23 0.402 L 23 0 L 22.64 0 L 0.36 0 Z M 0.719 16.896 L 0.719 0.804 L 22.281 0.804 L 22.281 16.896 L 11.5 16.896 L 11.366 16.896 L 11.266 16.992 L 6.829 21.25 L 6.829 17.298 L 6.829 16.896 L 6.469 16.896 L 0.719 16.896 Z M 3.594 5.23 L 19.406 5.23 L 19.406 4.425 L 3.594 4.425 L 3.594 5.23 Z M 3.594 9.253 L 19.406 9.253 L 19.406 8.448 L 3.594 8.448 L 3.594 9.253 Z M 19.406 13.275 L 3.594 13.275 L 3.594 12.47 L 19.406 12.47 L 19.406 13.275 Z" style="fill: rgba(0, 0, 0, 0.27);"/>
</svg>