<svg width="23" height="23" viewBox="0 0 23 23" fill="none" xmlns="http://www.w3.org/2000/svg">
<path d="M20.8827 2.88695H17.2261V0.673828C17.2261 0.301695 16.9244 0 16.5522 0H0.673828C0.301695 0 0 0.301695 0 0.673828V19.4392C0 21.4026 1.59738 23 3.56082 23C3.56082 23 14.7545 23 19.4392 23C21.4058 23 23 21.4058 23 19.4392V5.00425C23 3.83678 22.0502 2.88695 20.8827 2.88695ZM18.909 4.23461C18.8147 4.47664 18.7654 4.73665 18.7654 5.0043V7.21746H17.2261V4.23465L18.909 4.23461ZM3.56082 21.6523C2.34047 21.6523 1.34766 20.6595 1.34766 19.4392V1.34766H15.8784V19.4392C15.8784 20.2758 16.1677 21.0445 16.6507 21.6523H3.56082ZM21.6523 19.4392C21.6523 20.6615 20.6615 21.6523 19.4392 21.6523C18.4519 21.6523 17.6159 21.0057 17.3308 20.113H19.4392C19.8113 20.113 20.113 19.8113 20.113 19.4392C20.113 19.067 19.8113 18.7654 19.4392 18.7654H17.226V17.226H19.4392C19.8113 17.226 20.113 16.9243 20.113 16.5522C20.113 16.18 19.8113 15.8784 19.4392 15.8784H17.226V14.339H19.4392C19.8113 14.339 20.113 14.0373 20.113 13.6652C20.113 13.2931 19.8113 12.9914 19.4392 12.9914H17.226V11.452H19.4392C19.8113 11.452 20.113 11.1503 20.113 10.7782C20.113 10.4061 19.8113 10.1044 19.4392 10.1044H17.226V8.56503H19.4392C19.8113 8.56503 20.113 8.26333 20.113 7.8912V5.0043C20.113 4.58387 20.4529 4.23461 20.8827 4.23461C21.307 4.23461 21.6523 4.57992 21.6523 5.0043L21.6523 19.4392Z"/>
<path d="M13.6652 2.88695H3.56076C3.18863 2.88695 2.88693 3.18864 2.88693 3.56078C2.88693 3.93291 3.18863 4.23461 3.56076 4.23461H13.6652C14.0373 4.23461 14.339 3.93291 14.339 3.56078C14.339 3.18864 14.0373 2.88695 13.6652 2.88695Z"/>
<path d="M13.6652 12.9914H10.0565C9.68435 12.9914 9.38265 13.2931 9.38265 13.6652C9.38265 14.0373 9.68435 14.339 10.0565 14.339H13.6652C14.0373 14.339 14.339 14.0373 14.339 13.6652C14.339 13.2931 14.0373 12.9914 13.6652 12.9914Z"/>
<path d="M7.16947 12.9914H3.56076C3.18863 12.9914 2.88693 13.2931 2.88693 13.6652C2.88693 14.0373 3.18863 14.339 3.56076 14.339H7.16947C7.5416 14.339 7.8433 14.0373 7.8433 13.6652C7.8433 13.2931 7.5416 12.9914 7.16947 12.9914Z"/>
<path d="M13.6652 18.7654H10.0565C9.68435 18.7654 9.38265 19.067 9.38265 19.4392C9.38265 19.8113 9.68435 20.113 10.0565 20.113H13.6652C14.0373 20.113 14.339 19.8113 14.339 19.4392C14.339 19.067 14.0373 18.7654 13.6652 18.7654Z"/>
<path d="M7.16947 18.7654H3.56076C3.18863 18.7654 2.88693 19.067 2.88693 19.4392C2.88693 19.8113 3.18863 20.113 3.56076 20.113H7.16947C7.5416 20.113 7.8433 19.8113 7.8433 19.4392C7.8433 19.067 7.5416 18.7654 7.16947 18.7654Z"/>
<path d="M13.6652 15.8784H10.0565C9.68435 15.8784 9.38265 16.1801 9.38265 16.5522C9.38265 16.9243 9.68435 17.226 10.0565 17.226H13.6652C14.0373 17.226 14.339 16.9243 14.339 16.5522C14.339 16.1801 14.0373 15.8784 13.6652 15.8784Z"/>
<path d="M7.16947 15.8784H3.56076C3.18863 15.8784 2.88693 16.1801 2.88693 16.5522C2.88693 16.9243 3.18863 17.226 3.56076 17.226H7.16947C7.5416 17.226 7.8433 16.9243 7.8433 16.5522C7.8433 16.1801 7.5416 15.8784 7.16947 15.8784Z"/>
<path d="M13.6652 5.7739H3.56076C3.18863 5.7739 2.88693 6.07559 2.88693 6.44773V10.7782C2.88693 11.1503 3.18863 11.452 3.56076 11.452H13.6652C14.0373 11.452 14.339 11.1503 14.339 10.7782V6.44773C14.339 6.07559 14.0373 5.7739 13.6652 5.7739ZM12.9913 10.1044H4.23459V7.1216H12.9913V10.1044Z"/>
</svg>
