<svg width="23" height="23" viewBox="0 0 23 23" fill="none" xmlns="http://www.w3.org/2000/svg">
<path d="M22.9578 10.8426C22.9482 10.8196 22.9386 10.7985 22.9252 10.7764C22.9022 10.7381 22.8726 10.7055 22.839 10.6749C22.8256 10.6624 22.8198 10.6452 22.8045 10.6346C22.7978 10.6298 22.7882 10.6298 22.7815 10.6251C22.7729 10.6193 22.7681 10.6107 22.7585 10.6049L20.6071 9.37537C20.8946 9.09843 21.0834 8.72369 21.0834 8.30013C21.0834 7.728 20.7642 7.21243 20.2515 6.95462L16.7402 5.19894L17.1475 4.18025L17.4235 4.04225C17.5663 4.1285 17.7312 4.17544 17.9027 4.17544C17.9899 4.17544 18.079 4.16394 18.1672 4.13901L21.8606 3.08294C22.5314 2.89032 23 2.26932 23 1.57168C23 0.705318 22.2947 0 21.4283 0H20.9875C20.631 0 20.2822 0.122682 20.0052 0.344057L17.318 2.49361C17.0957 2.67186 16.9864 2.92868 16.9768 3.19417L16.5561 3.40404C16.4507 3.45674 16.3683 3.54586 16.3252 3.65511L15.8796 4.76868L14.5408 4.09975C13.5182 3.588 12.2072 3.86494 11.4779 4.73993L7.39544 9.63893L0.3565 11.5163C0.329682 11.524 0.309557 11.5402 0.284625 11.5518C0.27025 11.5584 0.253 11.5556 0.238625 11.5642C0.23 11.569 0.226182 11.5795 0.2185 11.5843C0.158125 11.6246 0.105432 11.6734 0.069 11.7348C0.0651816 11.7415 0.06325 11.7482 0.0594316 11.7549C0.0278066 11.8143 0.0115 11.8804 0.00768164 11.9494C0.00768164 11.96 0 11.9686 0 11.9791V18.6875C0 18.8591 0.092 19.0181 0.2415 19.1034L6.94982 22.9368C7.02362 22.9789 7.10601 23 7.1875 23C7.23444 23 7.28332 22.9933 7.33031 22.9779L22.6636 18.1863C22.8639 18.124 23 17.939 23 17.7291V11.0208C23 11.0045 22.9904 10.9911 22.9894 10.9748C22.9847 10.9288 22.9751 10.8857 22.9578 10.8426ZM20.6051 1.0925C20.7124 1.00625 20.8486 0.958318 20.9875 0.958318H21.4293C21.7676 0.958318 22.0426 1.23337 22.0426 1.57164C22.0426 1.84382 21.8596 2.08626 21.5979 2.16101L18.1585 3.14426C18.1576 3.14233 18.1576 3.13946 18.1576 3.13946C18.147 3.1174 18.1279 3.10401 18.1144 3.08483L20.6051 1.0925ZM12.2149 5.35325C12.513 4.99675 12.95 4.79168 13.4148 4.79168C13.6553 4.79168 13.8968 4.84918 14.1153 4.95556L15.5231 5.65899L15.4263 5.90049L10.7736 8.69306C10.5474 8.82913 10.4737 9.12336 10.6097 9.35049C10.6998 9.50093 10.8579 9.58336 11.0209 9.58336C11.1052 9.58336 11.1905 9.56131 11.2672 9.51436L16.0589 6.63936C16.1489 6.58568 16.2179 6.50424 16.2572 6.40649L16.3837 6.09024L19.8251 7.81043C20.011 7.90436 20.127 8.09124 20.127 8.303C20.127 8.55407 19.9564 8.77162 19.713 8.83294L19.4801 8.89139L19.4763 8.89233L6.57998 12.1161L12.2149 5.35325ZM6.70832 21.6947L0.958318 18.4096V12.8053L6.70832 16.0904V21.6947ZM7.24406 15.2931L1.72981 12.1421L6.33363 10.9144L4.90282 12.6308C4.77057 12.7909 4.75525 13.017 4.86544 13.1924C4.95362 13.3342 5.10887 13.4166 5.27082 13.4166C5.30914 13.4166 5.34844 13.4118 5.38775 13.4013L6.99775 12.9988L8.37869 13.8278C8.45632 13.8738 8.54163 13.8958 8.625 13.8958C8.78694 13.8958 8.94606 13.8134 9.03612 13.6639C9.17219 13.4368 9.09937 13.1426 8.87225 13.0065L8.31163 12.6701L10.1536 12.2101L11.2537 12.8694C11.3314 12.9154 11.4167 12.9375 11.5 12.9375C11.662 12.9375 11.8211 12.855 11.9112 12.7055C12.0472 12.4784 11.9744 12.1842 11.7473 12.0481L11.4684 11.8813L13.3113 11.4204L14.1278 11.9111C14.2064 11.9571 14.2917 11.9791 14.375 11.9791C14.537 11.9791 14.6961 11.8967 14.7862 11.7472C14.9213 11.521 14.8494 11.2288 14.6252 11.0917L16.468 10.6308L17.0037 10.9518C17.0814 10.9988 17.1667 11.0208 17.25 11.0208C17.412 11.0208 17.5711 10.9384 17.6612 10.7889C17.7484 10.6432 17.7417 10.4726 17.6707 10.3308L19.5328 9.86507L21.3287 10.8914L7.24406 15.2931ZM22.0417 17.3765L7.66668 21.8692V16.1642L22.0417 11.6725V17.3765Z"/>
</svg>
