<svg width="132" height="132" viewBox="0 0 132 132" fill="none" xmlns="http://www.w3.org/2000/svg">
<path d="M66 0C29.6054 0 0 29.6082 0 66C0 102.392 29.6054 132 66 132C102.395 132 132 102.392 132 66C132 29.6082 102.395 0 66 0ZM66 126.5C32.6401 126.5 5.49991 99.3599 5.49991 66C5.49991 32.6401 32.6401 5.49991 66 5.49991C99.3599 5.49991 126.5 32.6401 126.5 66C126.5 99.3599 99.3599 126.5 66 126.5Z" fill="white"/>
<path d="M92.2378 63.6877L53.7379 38.9377C52.8946 38.3873 51.8043 38.3576 50.9342 38.8356C50.0479 39.319 49.5 40.243 49.5 41.25V90.75C49.5 91.757 50.0479 92.681 50.9342 93.1644C51.3423 93.3874 51.7989 93.5001 52.2501 93.5001C52.7657 93.5001 53.2868 93.3549 53.7379 93.0623L92.2378 68.3123C93.0221 67.8075 93.5001 66.9346 93.5001 66C93.5001 65.0654 93.0221 64.1927 92.2378 63.6877ZM54.9999 85.7118V46.2882L85.6636 66L54.9999 85.7118Z" fill="white"/>
</svg>
