<?xml version="1.0" standalone="no"?>
<!DOCTYPE svg PUBLIC "-//W3C//DTD SVG 20010904//EN"
 "http://www.w3.org/TR/2001/REC-SVG-20010904/DTD/svg10.dtd">
<svg version="1.0" xmlns="http://www.w3.org/2000/svg"
 width="500.000000pt" height="500.000000pt" viewBox="0 0 500.000000 500.000000"
 preserveAspectRatio="xMidYMid meet">

<g transform="translate(0.000000,500.000000) scale(0.100000,-0.100000)"
fill="#000000" stroke="none">
<path d="M652 4280 c-109 -29 -187 -74 -272 -160 -87 -86 -131 -163 -160 -276
-19 -75 -20 -114 -20 -1138 0 -894 3 -1072 15 -1131 47 -221 235 -413 453
-460 l32 -7 0 100 0 100 -64 30 c-91 42 -149 100 -194 190 l-37 76 0 1095 0
1096 32 67 c44 93 100 151 191 196 l76 37 1746 0 1746 0 76 -37 c91 -45 147
-103 191 -196 l32 -67 0 -1095 0 -1095 -32 -67 c-43 -92 -100 -151 -189 -195
l-74 -36 0 -99 0 -100 33 7 c165 36 326 163 402 317 67 137 65 99 65 1274 0
1024 -1 1063 -20 1138 -29 113 -73 190 -160 277 -55 56 -95 86 -150 113 -143
70 -30 66 -1930 65 -1656 0 -1718 -1 -1788 -19z"/>
<path d="M3561 3483 c-24 -9 -63 -35 -86 -58 -80 -80 -75 15 -75 -1375 0
-1390 -5 -1295 75 -1375 98 -98 252 -98 350 0 80 80 75 -15 75 1375 0 1390 5
1295 -75 1375 -69 70 -169 91 -264 58z"/>
<path d="M1961 2883 c-24 -9 -63 -35 -86 -58 -79 -78 -75 -21 -75 -1075 0
-1054 -4 -997 75 -1075 98 -98 252 -98 350 0 79 78 75 21 75 1075 0 1054 4
997 -75 1075 -69 70 -169 91 -264 58z"/>
<path d="M2761 2483 c-24 -9 -63 -35 -86 -58 -78 -77 -75 -45 -75 -875 0 -830
-3 -798 75 -875 98 -98 252 -98 350 0 78 77 75 45 75 875 0 830 3 798 -75 875
-69 70 -169 91 -264 58z"/>
<path d="M1161 1983 c-59 -21 -124 -87 -144 -148 -15 -43 -17 -108 -17 -535 0
-551 0 -550 75 -625 45 -45 115 -75 175 -75 60 0 130 30 175 75 75 75 75 74
75 625 0 551 0 550 -75 625 -69 70 -169 91 -264 58z"/>
</g>
</svg>
