<svg width="38" height="31" viewBox="0 0 38 31" fill="none" xmlns="http://www.w3.org/2000/svg">
<path d="M38 3.65072C36.5771 4.28372 35.0182 4.65944 33.4727 4.8428C35.1003 3.86463 36.3049 2.3338 36.8867 0.521532C35.3562 1.43305 33.7449 2.11319 31.999 2.45865C30.4903 0.848071 28.4632 0 26.4219 0C24.418 0 22.5034 0.678399 20.9682 2.12774C19.3841 3.62307 18.4837 5.69174 18.4805 7.82298C18.4796 8.4161 18.5759 9.01389 18.7127 9.60556C12.4441 9.29008 6.63069 6.30495 2.67188 1.41559C1.95433 2.65568 1.55772 4.02528 1.55859 5.36433C1.56033 7.88642 2.80901 10.3459 5.04688 11.8462C3.80603 11.8093 2.56866 11.559 1.48438 10.9522V11.0948C1.48553 14.8203 4.15509 17.8884 7.79297 18.6261C7.15022 18.8022 6.31671 18.9268 5.64729 18.9268C5.64497 18.9268 5.64265 18.9268 5.64062 18.9268C5.11732 18.9259 4.59402 18.8741 4.08203 18.7751C5.10341 21.9634 8.24263 24.3001 11.5781 24.363C8.81754 26.5411 4.52734 27.5667 1.85605 27.5667C1.23563 27.5655 0.615784 27.5661 0 27.4922C3.55699 29.7835 7.69469 30.9939 11.9205 30.9939H11.9501V31C26.1992 31 34.1406 19.0705 34.1406 8.72809C34.1406 8.38933 34.0893 8.00953 34.0664 7.67397C35.5922 6.566 36.9531 5.2223 38 3.65072ZM29.8994 15.5191C29.025 17.8456 27.7685 19.948 26.165 21.7681C24.4646 23.698 22.4506 25.2131 20.1794 26.271C17.8424 27.3595 15.2615 27.9444 12.5006 28.0128L11.9449 28.0137H11.9205C11.7599 28.0137 11.5996 28.0117 11.4395 28.0076C12.138 27.6205 12.8027 27.1872 13.4124 26.7061C14.9449 25.2771 15.6288 23.4669 15.8828 21.4634C15.8828 21.4634 14.6336 21.6159 13.2109 21.6063C12.1087 21.5987 10.9026 21.5079 10.092 21.0857C12.1093 20.1753 13.1695 18.666 13.6009 16.7635C11.875 16.9125 7.86719 16.0185 6.42949 14.8689C8.01562 14.3049 9.5 13.1128 10.0938 12.1442C10.0938 12.1442 7.27344 10.8032 5.28258 7.92804C9.14949 10.6978 13.7545 12.3401 18.5643 12.582L22.4883 12.7403L21.6765 9.24322L21.5249 8.54969C21.4739 8.26855 21.4489 8.03019 21.4492 7.82734C21.451 6.51478 22.0172 5.22841 23.002 4.29856C23.9286 3.42372 25.0793 2.98018 26.4219 2.98018C27.4137 2.98018 28.393 3.32069 29.2059 3.93361C30.5039 5.06631 31.1719 6.5564 31.1719 8.72809C31.1719 10.9565 30.7318 13.3049 29.8994 15.5191Z" fill="#B8B8B8"/>
</svg>
