<svg width="24" height="24" viewBox="0 0 24 24" fill="none" xmlns="http://www.w3.org/2000/svg">
<path d="M15.9584 11.5308L10.9749 7.90817C10.792 7.7756 10.5492 7.75563 10.3488 7.85865C10.1467 7.96088 10.0205 8.16853 10.0205 8.39295V15.6358C10.0205 15.8626 10.1467 16.0695 10.3488 16.1717C10.4342 16.2149 10.5277 16.2364 10.6219 16.2364C10.7449 16.2364 10.8695 16.1973 10.9749 16.1198L15.9584 12.5004C16.1158 12.3846 16.2076 12.2057 16.2076 12.0156C16.2084 11.8223 16.1142 11.6442 15.9584 11.5308Z"/>
<path d="M12.0004 0.00201416C5.37167 0.00201416 0 5.37368 0 12.0024C0 18.6287 5.37167 23.9988 12.0004 23.9988C18.6275 23.9988 24 18.628 24 12.0024C24.0008 5.37368 18.6275 0.00201416 12.0004 0.00201416ZM12.0004 21.9966C6.48018 21.9966 2.00459 17.5234 2.00459 12.0024C2.00459 6.4838 6.48018 2.00501 12.0004 2.00501C17.5198 2.00501 21.9946 6.483 21.9946 12.0024C21.9954 17.5234 17.5198 21.9966 12.0004 21.9966Z"/>
</svg>
