<svg width="34" height="34" viewBox="0 0 34 34" fill="none" xmlns="http://www.w3.org/2000/svg">
<path fill-rule="evenodd" clip-rule="evenodd" d="M28.9379 5.01213C25.7804 1.85095 21.5812 0.109276 17.1077 0.107422C7.88944 0.107422 0.387154 7.6095 0.383446 16.8302C0.38221 19.7778 1.15221 22.6551 2.6158 25.1913L0.243164 33.8574L9.10892 31.5317C11.5518 32.8643 14.302 33.5666 17.1009 33.5674H17.1079C26.325 33.5674 33.8282 26.0647 33.8317 16.8436C33.8335 12.3748 32.0955 8.1731 28.9379 5.01213ZM17.1077 30.743H17.1019C14.6077 30.742 12.1615 30.0717 10.027 28.8054L9.51968 28.5041L4.2586 29.8842L5.66286 24.7548L5.33224 24.2289C3.94075 22.0157 3.20597 19.4576 3.20721 16.8312C3.21009 9.16723 9.44593 2.93201 17.1132 2.93201C20.826 2.93324 24.3162 4.38097 26.9406 7.00841C29.5649 9.63586 31.0093 13.1283 31.0081 16.8425C31.0048 24.5072 24.7694 30.743 17.1077 30.743ZM24.7323 20.3323C24.3145 20.123 22.26 19.1124 21.8768 18.9727C21.4941 18.8333 21.2152 18.7639 20.9369 19.182C20.6582 19.6002 19.8575 20.5416 19.6136 20.8203C19.3697 21.0992 19.1262 21.1342 18.7082 20.9249C18.2903 20.7158 16.9439 20.2744 15.3476 18.8508C14.1055 17.7427 13.2669 16.3743 13.023 15.9562C12.7795 15.5376 13.0209 15.3332 13.2063 15.1033C13.6587 14.5416 14.1117 13.9527 14.2509 13.674C14.3904 13.395 14.3206 13.1509 14.2159 12.9419C14.1117 12.7328 13.276 10.6759 12.9278 9.83897C12.5884 9.02447 12.2441 9.13447 11.9875 9.1217C11.744 9.10955 11.4653 9.10708 11.1866 9.10708C10.9081 9.10708 10.4553 9.21152 10.0722 9.63009C9.68921 10.0485 8.6098 11.0593 8.6098 13.1161C8.6098 15.173 10.1072 17.16 10.316 17.4389C10.5249 17.7178 13.2628 21.9386 17.4545 23.7485C18.4516 24.1794 19.2298 24.4363 19.8369 24.6289C20.838 24.947 21.7487 24.902 22.4688 24.7945C23.2718 24.6744 24.941 23.7835 25.2895 22.8075C25.6376 21.8313 25.6376 20.9948 25.533 20.8203C25.4288 20.646 25.1501 20.5416 24.7323 20.3323Z" fill="white"/>
</svg>
