<svg width="41" height="30" viewBox="0 0 41 30" fill="none" xmlns="http://www.w3.org/2000/svg">
<path d="M20.4985 30C20.4951 30 20.4913 30 20.4876 30C19.2504 29.9914 8.3135 29.8904 5.21485 29.0419C3.0493 28.4525 1.33982 26.7234 0.756128 24.5304C-0.0546629 21.4483 -0.00305006 15.5144 0.00258043 15.0405C-0.00273725 14.5689 -0.0549757 8.58591 0.753625 5.47847C0.754564 5.47562 0.75519 5.47246 0.756128 5.4696C1.33325 3.30159 3.08121 1.51904 5.20953 0.928018C5.21485 0.926434 5.22048 0.925167 5.2258 0.923584C8.28941 0.108322 19.2479 0.00855172 20.4876 0H20.5098C21.75 0.00855172 32.716 0.109588 35.7862 0.959374C37.9462 1.54722 39.6544 3.27403 40.2396 5.46422C41.0808 8.57387 41.0029 14.5699 40.9944 15.076C41.0004 15.5745 41.0495 21.4553 40.2434 24.5529C40.2428 24.556 40.2418 24.5589 40.2412 24.5618C39.6572 26.7548 37.948 28.4838 35.78 29.0739C35.7772 29.0748 35.774 29.0755 35.7712 29.0764C32.7079 29.8914 21.7491 29.9911 20.5098 30C20.506 30 20.5023 30 20.4985 30ZM3.84977 6.31021C3.13783 9.05308 3.20508 14.9598 3.2057 15.0193V15.0621C3.18443 16.7002 3.25919 21.4442 3.85008 23.6911C4.13661 24.767 4.97962 25.6193 6.04879 25.9104C8.33508 26.5366 17.2428 26.7336 20.4985 26.7567C23.7626 26.7336 32.6835 26.5419 34.9529 25.9408C36.0186 25.6488 36.8588 24.7993 37.1472 23.7221C37.7388 21.4423 37.8129 16.7214 37.7913 15.0938C37.7913 15.0766 37.7913 15.0595 37.7916 15.0424C37.821 13.3847 37.7632 8.58527 37.1501 6.32034C37.1494 6.31812 37.1488 6.31591 37.1485 6.31369C36.8607 5.23301 36.0174 4.38069 34.9482 4.08961C32.6841 3.46281 23.762 3.26643 20.4985 3.24331C17.2366 3.26643 8.32445 3.45774 6.04816 4.05826C4.99933 4.35282 4.13724 5.23554 3.84977 6.31021ZM16.4161 21.5674V8.43229L27.627 15L16.4161 21.5674Z" fill="#B8B8B8"/>
</svg>
